<?xml version="1.0" encoding="UTF-8" standalone="no"?>
<svg
   viewBox="0 0 16 16"
   version="1.1"
   id="svg4"
   sodipodi:docname="microphone-sensitivity-muted.svg"
   inkscape:version="1.3.2 (091e20ef0f, 2023-11-25)"
   xmlns:inkscape="http://www.inkscape.org/namespaces/inkscape"
   xmlns:sodipodi="http://sodipodi.sourceforge.net/DTD/sodipodi-0.dtd"
   xmlns="http://www.w3.org/2000/svg"
   xmlns:svg="http://www.w3.org/2000/svg">
  <defs
     id="defs4" />
  <sodipodi:namedview
     id="namedview4"
     pagecolor="#ffffff"
     bordercolor="#000000"
     borderopacity="0.25"
     inkscape:showpageshadow="2"
     inkscape:pageopacity="0.0"
     inkscape:pagecheckerboard="0"
     inkscape:deskcolor="#d1d1d1"
     inkscape:zoom="51.486213"
     inkscape:cx="4.1273186"
     inkscape:cy="5.95305"
     inkscape:window-width="2398"
     inkscape:window-height="1295"
     inkscape:window-x="26"
     inkscape:window-y="23"
     inkscape:window-maximized="0"
     inkscape:current-layer="g4" />
  <style
     id="current-color-scheme"
     type="text/css">
        .ColorScheme-Text {
            color:#d3dae3;
        }
        .ColorScheme-NegativeText {
            color:#da4453;
        }
    </style>
  <g
     class="ColorScheme-Text"
     fill="currentColor"
     id="g4">
    <path
       d="m 8.0050687,0.29513478 c -0.7118838,0 -1.355041,0.28589 -1.8195645,0.75041352 L 10.575046,5.4350907 V 2.8651128 c 0,-1.4237679 -1.1462095,-2.56997802 -2.5699773,-2.56997802 z M 5.4350907,5.4350907 v 2.569978 c 0,1.4237678 1.1462102,2.5699773 2.569978,2.5699773 0.7118838,0 1.3550409,-0.285889 1.8195645,-0.7504128 z m -2.5699779,1.284989 v 1.284989 c 0,2.3733753 1.6524957,4.3759903 3.8549669,4.9542343 v 1.470711 h -1.284989 v 1.284989 H 10.575046 V 14.430014 H 9.2900577 V 12.959303 C 10.18262,12.724447 10.975544,12.246411 11.614081,11.614081 l -0.888449,-0.888449 c -0.699517,0.699516 -1.6636599,1.134404 -2.7205633,1.134404 -2.1138069,0 -3.854967,-1.74116 -3.854967,-3.8549673 v -1.284989 z m 8.9949222,0 1.284989,1.284989 v -1.284989 z"
       id="path1"
       style="stroke-width:1.28499" />
  </g>
  <path
     d="M 0.93762942,0.02910196 0.02910207,0.93762932 15.072508,15.981035 15.981035,15.072508 Z"
     class="ColorScheme-NegativeText"
     fill="currentColor"
     id="path4"
     style="stroke-width:1.28499" />
</svg>
