<?xml version="1.0" encoding="UTF-8"?>
<svg id="Logo" xmlns="http://www.w3.org/2000/svg" viewBox="0 0 862.05 862.05">
  <style type="text/css" id="current-color-scheme">
    .ColorScheme-Text {
      color:#fff;
    }
    .ColorScheme-Background {
      color:#1a1a1a;
    }
    .ColorScheme-Accent {
      color:#fff;
    }
    .ColorScheme-ButtonText {
      color:#fff;
    }
  </style>
  <path class="ColorScheme-Text" d="M431.02,0C193.35,0,0,193.35,0,431.02s193.35,431.03,431.02,431.03,431.02-193.36,431.02-431.03S668.69,0,431.02,0ZM434.09,768.15c-186.19,0-337.12-150.93-337.12-337.12S247.9,93.9,434.09,93.9c129.28,0,241.54,72.78,298.1,179.6h-298.1c-87,0-157.52,70.53-157.52,157.52s70.53,157.52,157.52,157.52c.52,0,1.04-.02,1.56-.03,55.55-2.82,99.73-48.75,99.73-105.01,0-31.58-13.94-59.88-35.98-79.15v-.02s258.54,88.35,258.54,88.35l7.13,2.44-.4,1.94c-30.7,154.56-167.02,271.08-330.59,271.08Z" style="fill:currentColor"/>
</svg>
