<?xml version="1.0" encoding="UTF-8" standalone="no"?>
<svg
   id="Logo"
   viewBox="0 0 862.05 862.05"
   version="1.1"
   sodipodi:docname="GONNECT_Logo_dark.svg"
   inkscape:version="1.4 (e7c3feb100, 2024-10-09)"
   xmlns:inkscape="http://www.inkscape.org/namespaces/inkscape"
   xmlns:sodipodi="http://sodipodi.sourceforge.net/DTD/sodipodi-0.dtd"
   xmlns="http://www.w3.org/2000/svg"
   xmlns:svg="http://www.w3.org/2000/svg">
  <sodipodi:namedview
     id="namedview1"
     pagecolor="#ffffff"
     bordercolor="#000000"
     borderopacity="0.25"
     inkscape:showpageshadow="2"
     inkscape:pageopacity="0.0"
     inkscape:pagecheckerboard="0"
     inkscape:deskcolor="#d1d1d1"
     inkscape:zoom="1.3456296"
     inkscape:cx="431.02499"
     inkscape:cy="431.02499"
     inkscape:window-width="2560"
     inkscape:window-height="1371"
     inkscape:window-x="26"
     inkscape:window-y="23"
     inkscape:window-maximized="0"
     inkscape:current-layer="Logo" />
  <defs
     id="defs1">
    <style
       id="style1">
      .cls-1 {
        fill: #fff;
      }
    </style>
  </defs>
  <path
     class="cls-1"
     d="M431.02,0C193.35,0,0,193.35,0,431.02s193.35,431.03,431.02,431.03,431.02-193.36,431.02-431.03S668.69,0,431.02,0ZM434.09,768.15c-186.19,0-337.12-150.93-337.12-337.12S247.9,93.9,434.09,93.9c129.28,0,241.54,72.78,298.1,179.6h-298.1c-87,0-157.52,70.53-157.52,157.52s70.53,157.52,157.52,157.52c.52,0,1.04-.02,1.56-.03,55.55-2.82,99.73-48.75,99.73-105.01,0-31.58-13.94-59.88-35.98-79.15v-.02s258.54,88.35,258.54,88.35l7.13,2.44-.4,1.94c-30.7,154.56-167.02,271.08-330.59,271.08Z"
     id="path1"
     style="fill:#1a1a1a" />
</svg>
