<?xml version="1.0" encoding="UTF-8" standalone="no"?>
<svg
   id="Logo"
   viewBox="0 0 743121.57 743130.2"
   version="1.1"
   width="743121.56"
   height="743130.19"
   xmlns="http://www.w3.org/2000/svg"
   xmlns:svg="http://www.w3.org/2000/svg">
  <defs
     id="defs1" />
  <style
     type="text/css"
     id="current-color-scheme">
    .ColorScheme-Text {
      color:#fff;
    }
    .ColorScheme-Background {
      color:#1a1a1a;
    }
    .ColorScheme-Accent {
      color:#fff;
    }
    .ColorScheme-ButtonText {
      color:#fff;
    }
  </style>
  <path
     class="ColorScheme-Text"
     d="m 426.71748,0.00273913 c -237.67,0 -431.0199916,193.34999087 -431.0199916,431.01999087 0,237.67 193.3499916,431.03 431.0199916,431.03 237.67,0 431.02,-193.36 431.02,-431.03 0,-237.67 -193.35,-431.01999087 -431.02,-431.01999087 z m 3.07,768.14999087 c -186.19,0 -337.119991,-150.93 -337.119991,-337.12 0,-186.19 150.929991,-337.129991 337.119991,-337.129991 129.28,0 241.54,72.779991 298.1,179.599991 h -298.1 c -87,0 -157.52,70.53 -157.52,157.52 0,86.99 70.53,157.52 157.52,157.52 0.52,0 1.04,-0.02 1.56,-0.03 55.55,-2.82 99.73,-48.75 99.73,-105.01 0,-31.58 -13.94,-59.88 -35.98,-79.15 v -0.02 c 0,0 258.54,88.35 258.54,88.35 l 7.13,2.44 -0.4,1.94 c -30.7,154.56 -167.02,271.08 -330.59,271.08 z"
     style="fill:#999999;stroke-width:65.2798;stroke-miterlimit:4;stroke-dasharray:2.05468, 2.05468;stroke-dashoffset:1.43828"
     id="path1" />
  <circle
     style="fill:none;fill-opacity:1;stroke:#ff0000;stroke-width:65.2798;stroke-miterlimit:4;stroke-dasharray:none;stroke-dashoffset:22.3479;stroke-opacity:1"
     id="path3"
     cx="426.7175"
     cy="431.02774"
     r="386.10144" />
</svg>
