<?xml version="1.0" encoding="UTF-8" standalone="no"?>
<svg xmlns="http://www.w3.org/2000/svg" xmlns:svg="http://www.w3.org/2000/svg" height="400px" width="400px" viewBox="0 0 200 200" version="1.1">
  <g style="stroke:none; fill-rule:nonzero;">
    <rect style="fill:#ffffff;" y="0" x="0" height="200" width="200" />
    <path style="fill:#008855;" d="M 5,100 V 5 h 95 95 v 95 95 H 100 5 Z m 80.59,77.28 c 6.218,-1.09 25.3,-8.93 24.82,-10.19 -0.15,-0.39 -2.48,-3.27 -5.17,-6.41 -2.7,-3.14 -9.33,-10.88 -14.736,-17.21 l -9.829,-11.5 -4.434,4.22 c -5.209,4.95 -4.938,5.16 -10.149,-7.9 -5.591,-14.03 -19.463,-55.627 -19.463,-58.372 0,-0.48 2.92,-0.873 6.49,-0.873 h 6.489 L 58.92,65.576 C 58.055,61.214 55.463,49.139 53.592,40.758 52.805,37.236 51.836,32.315 51.437,29.823 51.039,27.331 50.392,25.094 50,24.851 c -1.42,-0.877 -11.957,1.638 -17.474,4.171 -10.647,4.888 -9.915,2.656 -9.904,30.197 0.007,19.664 0.379,25.847 1.967,32.775 6.946,30.296 21.07,57.186 39.297,74.816 9.936,9.61 13.604,12.34 15.734,11.72 0.935,-0.27 3.622,-0.83 5.97,-1.25 z m 32.93,-14.79 c 1.56,-1.43 2.83,-3.07 2.83,-3.63 0,-1.07 -23.483,-29.27 -26.923,-32.33 -1.169,-1.04 -2.906,-1.52 -4.262,-1.16 -2.546,0.66 -6.176,3.47 -6.176,4.76 0,0.46 4.443,6.03 9.873,12.36 5.431,6.34 11.978,14.02 14.538,17.07 2.57,3.06 5.26,5.55 5.99,5.55 0.72,0 2.58,-1.18 4.13,-2.62 z M 67.591,66.384 c 3.583,-1.497 3.784,-1.837 3.31,-5.604 -1.295,-10.297 -7.192,-35.908 -8.451,-36.707 -0.776,-0.492 -3.264,-0.902 -5.529,-0.911 -3.716,-0.014 -4.068,0.219 -3.603,2.386 0.283,1.321 2.375,11.408 4.649,22.415 2.274,11.008 4.511,20.015 4.972,20.015 0.46,0 2.554,-0.718 4.652,-1.594 z" />
    <circle style="fill:#ffffff;" cx="155.12848" cy="45.302776" r="24.978607" />
    <circle style="fill:#008855;" cx="162.47511" cy="45.302776" r="20.570618" />
  </g>
</svg>
