<?xml version="1.0" encoding="UTF-8"?>
<svg xmlns="http://www.w3.org/2000/svg" viewBox="0 0 862.05 1080">
  <defs>
    <style>
      .cls-1 {
        fill: #fff;
      }

      .cls-2 {
        fill: #1e398f;
      }
    </style>
  </defs>
  <g id="background">
    <circle class="cls-1" cx="431.02" cy="431.02" r="406.03"/>
  </g>
  <g id="Title">
    <g>
      <path class="cls-2" d="M211.45,957.77c-7.59-6.1-18.93-6.12-18.93-6.12h-31.82c-22.11,0-34.83,10.61-39,29.76-4.19,23.23-8.95,49.72-9.96,55.29-1.57,8.72-1.91,15.66-1.27,20.15.64,4.48,2.74,11.26,10.68,17.03,7.86,5.72,18.93,6.12,18.93,6.12h34.11c15.12,0,32.05-6.58,36.48-28.73,2.34-12.98,4.88-27.75,6.92-39.08h-54.34l-4.25,25.29h17.82s-1.03,5.72-1.19,6.61c-.16.88-.7,4.7-5.73,4.7-3.21,0-7.82-.03-13.48-.11-10.09-.14-8.68-9.78-8.68-9.78l9.19-51.17s.47-4.82,5.5-4.82c3.21.01,7.93.03,13.75.07,11.43.08,8.68,9.78,8.68,9.78h.01l-.27,1.54h36.37c1.45-8.33,1.34-13.34.73-17.72-.64-4.48-2.67-12.71-10.24-18.8Z"/>
      <path class="cls-2" d="M338.82,976.56c-.64-4.48-2.67-12.71-10.24-18.8-7.59-6.1-18.93-6.11-18.93-6.11h-31.82c-22.1,0-34.82,10.61-38.98,29.76-4.19,23.23-8.95,49.71-9.96,55.29-1.57,8.72-1.91,15.66-1.27,20.15.64,4.48,2.74,11.26,10.68,17.03,7.86,5.72,18.93,6.12,18.93,6.12h34.11c15.13,0,32.07-6.57,36.48-28.73,1.68-9.28,3.44-19.47,5.07-28.65l5.46-29.93c1.18-7.38,1.04-12.02.47-16.11h0ZM301.99,992.67l-3.49,19.49s-5.61,31.31-5.72,31.9c-.16.89-.7,4.7-5.73,4.7-3.2,0-7.82-.03-13.48-.11-10.09-.14-8.68-9.78-8.68-9.78l9.19-51.17s.47-4.82,5.49-4.82c3.22,0,7.93.03,13.75.07,10.88.08,8.68,9.71,8.68,9.71Z"/>
      <path class="cls-2" d="M398.31,987.16c-10.22-.22-19.35,4.07-27.38,12.86l2.14-11.29-14.1.08-15.5,89.22h14.93l11.05-63.59c6.76-9.72,14.62-14.5,23.58-14.33,8.13.16,12.67,4.09,13.61,11.78.27,2.31.25,4.81-.08,7.5l-9.81,58.65h14.92l9.73-58.46c1.05-10.17-.44-18.06-4.45-23.67-4.01-5.61-10.23-8.52-18.64-8.74Z"/>
      <path class="cls-2" d="M489.51,987.16c-10.22-.22-19.35,4.07-27.38,12.86l2.14-11.29-14.1.08-15.5,89.22h14.93l11.05-63.59c6.76-9.72,14.62-14.5,23.58-14.33,8.13.16,12.67,4.09,13.61,11.78.27,2.31.25,4.81-.08,7.5l-9.81,58.65h14.92l9.73-58.46c1.05-10.17-.44-18.06-4.45-23.67-4.01-5.61-10.23-8.52-18.64-8.74Z"/>
      <path class="cls-2" d="M596.29,996.31c-5.22-5.88-12.42-8.93-21.61-9.15-7.2-.16-13.91,1.61-20.12,5.32-6.21,3.71-11.48,9.22-15.79,16.53-4.32,7.31-6.94,15.39-7.87,24.24l-.41,3.55c-.99,12.42,1.65,22.62,7.92,30.59,6.26,7.97,14.95,12.07,26.05,12.29,7.26.11,13.84-1.36,19.75-4.41,5.91-3.05,10.73-7.27,14.47-12.66l-8.58-7.26c-7.48,8.14-15.61,12.09-24.41,11.87-7.26-.22-12.71-3.16-16.37-8.82-3.66-5.66-4.99-12.54-4-20.61h58.3l.91-6.84c.38-3.57.49-7.15.33-10.72-.5-10.06-3.35-18.03-8.58-23.91ZM590.6,1024.02l-.33,1.32-43.37-.08c2.69-8.57,6.33-15.03,10.93-19.38,4.59-4.34,9.96-6.43,16.12-6.26,5.77.16,10.21,2.54,13.32,7.13,3.1,4.59,4.22,10.35,3.34,17.28Z"/>
      <path class="cls-2" d="M632.73,1033.17c1.26-10.67,4.47-18.97,9.61-24.9,5.14-5.94,11.59-8.82,19.34-8.66,5.33.22,9.57,2.13,12.7,5.73s4.75,8.32,4.87,14.14l13.93.08c0-9.29-2.8-16.96-8.41-23.01-5.61-6.05-13.08-9.18-22.43-9.4-7.7-.22-14.73,1.55-21.11,5.32-6.38,3.77-11.54,9.03-15.5,15.79-3.96,6.76-6.46,14.43-7.51,23.01l-.41,4.12c-.77,8.41.05,15.98,2.48,22.72,2.42,6.73,6.2,11.98,11.34,15.75,5.14,3.77,11.42,5.7,18.84,5.81,5.83.17,11.52-1.05,17.07-3.63,5.55-2.58,10.16-6.18,13.81-10.8,3.66-4.62,5.9-9.73,6.72-15.33l-14.1.08c-1.32,5.22-4.12,9.44-8.41,12.66-4.29,3.22-9.1,4.77-14.43,4.66-5.66-.16-10.11-2.11-13.36-5.85-3.24-3.73-5.06-8.82-5.44-15.25-.22-3.74-.16-7.36.17-10.88l.25-2.14Z"/>
      <path class="cls-2" d="M739.43,967.21h-14.84l-3.79,21.6h-15.75l-2.06,11.79h15.75l-9.07,55.25c-.66,7.2.49,12.93,3.46,17.19,2.97,4.26,7.42,6.44,13.36,6.56,3.68,0,7.31-.5,10.88-1.48l1.15-12.45c-3.02.55-5.44.82-7.26.82-4.29,0-6.62-2.14-7.01-6.43-.11-1.21-.08-2.53.08-3.96l9.32-55.5h16.16l2.06-11.79h-16.24l3.79-21.6Z"/>
    </g>
  </g>
  <g id="Logo">
    <path class="cls-2" d="M431.02,0C193.35,0,0,193.35,0,431.02s193.35,431.03,431.02,431.03,431.02-193.36,431.02-431.03S668.69,0,431.02,0ZM434.09,768.15c-186.19,0-337.12-150.93-337.12-337.12S247.9,93.9,434.09,93.9c129.28,0,241.54,72.78,298.1,179.6h-298.1c-87,0-157.52,70.53-157.52,157.52s70.53,157.52,157.52,157.52c.52,0,1.04-.02,1.56-.03,55.55-2.82,99.73-48.75,99.73-105.01,0-31.58-13.94-59.88-35.98-79.15v-.02s258.54,88.35,258.54,88.35l7.13,2.44-.4,1.94c-30.7,154.56-167.02,271.08-330.59,271.08Z"/>
  </g>
</svg>