<?xml version="1.0" encoding="UTF-8" standalone="no"?>
<!-- Created with Inkscape (http://www.inkscape.org/) -->

<svg
   width="128.00002"
   height="127.99999"
   viewBox="0 0 33.866671 33.866665"
   version="1.1"
   id="svg1"
   xmlns="http://www.w3.org/2000/svg"
   xmlns:svg="http://www.w3.org/2000/svg">
  <defs
     id="defs1" />
  <g
     id="layer1"
     transform="matrix(0.96638653,0,0,0.96638653,-30.624964,-133.41225)">
    <g
       id="g1"
       transform="matrix(1.8942385,0,0,1.8942385,17.431905,-108.88025)">
      <g
         id="g10"
         transform="matrix(0.0185408,0,0,0.0185408,8.613251,131.52931)">
        <g
           id="background">
          <circle
             class="cls-3"
             cx="440.34"
             cy="435.85001"
             r="428.10999"
             id="circle1"
             style="fill:#ffffff" />
        </g>
      </g>
      <circle
         style="fill:#213c8d;stroke-width:0.264583"
         id="path4"
         cx="16.777506"
         cy="139.61032"
         r="8.3108377" />
      <g
         id="MAIN"
         transform="matrix(0.01824383,0,0,0.01824829,8.840981,131.65671)">
        <path
           class="cls-1"
           d="M 764.91855,498.82074 500.87401,408.59157 v 0.0258 c 22.49506,19.68855 36.73364,48.59484 36.73364,80.83977 0,57.45211 -45.11887,104.37334 -101.85862,107.24852 -0.53213,0 -1.05567,0.0257 -1.59637,0.0257 -88.85594,0 -160.88136,-72.02541 -160.88136,-160.88135 0,-88.85594 72.02542,-160.88135 160.88136,-160.88135 H 738.61279 C 680.84312,165.87487 566.1878,91.540728 434.15266,91.540728 243.99596,91.540728 89.843387,245.6933 89.843387,435.85 c 0,190.1567 154.152573,344.30927 344.309273,344.30927 167.06085,0 306.27965,-119.00671 337.64057,-276.8584 l 0.40338,-1.98259 -7.28665,-2.48896 z"
           id="path3"
           style="fill:#ffffff;stroke-width:0.858263" />
      </g>
    </g>
  </g>
</svg>
