<svg version="1.1" viewBox="0 0 22 22" xmlns="http://www.w3.org/2000/svg">
    <defs>
        <style id="current-color-scheme" type="text/css">
            .ColorScheme-Text {
                color:#232629;
            }
        </style>
    </defs>
    <g shape-rendering="auto">
        <path d="m11 7c-2.2032167 0-4 1.7967833-4 4 0 2.203217 1.7967833 4 4 4 2.203217 0 4-1.796783 4-4 0-2.2032167-1.796783-4-4-4zm0 1c1.662777 0 3 1.3372234 3 3 0 1.662777-1.337223 3-3 3-1.6627766 0-3-1.337223-3-3 0-1.6627766 1.3372234-3 3-3z" class="ColorScheme-Text" fill="currentColor" color-rendering="auto" dominant-baseline="auto" image-rendering="auto"/>
        <path d="m10.5 5v1h1v-1z" class="ColorScheme-Text" fill="currentColor" color-rendering="auto" dominant-baseline="auto" image-rendering="auto"/>
        <path d="m10.5 16v1h1v-1z" class="ColorScheme-Text" fill="currentColor" color-rendering="auto" dominant-baseline="auto" image-rendering="auto"/>
        <path d="m5 10.5v1h1v-1z" class="ColorScheme-Text" fill="currentColor" color-rendering="auto" dominant-baseline="auto" image-rendering="auto"/>
        <path d="m16 10.5v1h1v-1z" class="ColorScheme-Text" fill="currentColor" color-rendering="auto" dominant-baseline="auto" image-rendering="auto"/>
        <path d="m14.807107 14.1-0.707107 0.707107 0.707107 0.707107 0.707107-0.707107z" class="ColorScheme-Text" fill="currentColor" color-rendering="auto" dominant-baseline="auto" image-rendering="auto"/>
        <path d="m7.207107 14.1-0.707107 0.707107 0.707107 0.707107 0.707107-0.707107z" class="ColorScheme-Text" fill="currentColor" color-rendering="auto" dominant-baseline="auto" image-rendering="auto"/>
        <path d="m14.807107 6.5-0.707107 0.707107 0.707107 0.707107 0.707107-0.707107z" class="ColorScheme-Text" fill="currentColor" color-rendering="auto" dominant-baseline="auto" image-rendering="auto"/>
        <path d="M 7.207107,6.5 6.5,7.207107 7.207107,7.914214 7.914214,7.207107 Z" class="ColorScheme-Text" fill="currentColor" color-rendering="auto" dominant-baseline="auto" image-rendering="auto"/>
    </g>
</svg>
